<?xml version="1.0" encoding="UTF-8"?>
<!DOCTYPE svg PUBLIC "-//W3C//DTD SVG 1.1//EN" "http://www.w3.org/Graphics/SVG/1.1/DTD/svg11.dtd">
<!-- Creator: CorelDRAW 2020 (64-Bit) -->
<svg xmlns="http://www.w3.org/2000/svg" xml:space="preserve" width="309mm" height="89mm" version="1.1" style="shape-rendering:geometricPrecision; text-rendering:geometricPrecision; image-rendering:optimizeQuality; fill-rule:evenodd; clip-rule:evenodd"
viewBox="0 0 30900 8900"
 xmlns:xlink="http://www.w3.org/1999/xlink"
 xmlns:xodm="http://www.corel.com/coreldraw/odm/2003">
 <defs>
  <style type="text/css">
   <![CDATA[
    .fil0 {fill:#B5C3C2;fill-rule:nonzero}
    .fil2 {fill:#FAA000;fill-rule:nonzero}
    .fil1 {fill:#FEE0AC;fill-rule:nonzero}
    .fil3 {fill:#FEE0AD;fill-rule:nonzero}
    .fil4 {fill:white;fill-rule:nonzero}
    .fil5 {fill:white;fill-rule:nonzero}
   ]]>
  </style>
 </defs>
 <g id="Слой_x0020_1">
  <metadata id="CorelCorpID_0Corel-Layer"/>
  <polygon class="fil0" points="8544.73,4649.59 8652.51,4649.59 8652.51,4353.26 8544.73,4353.26 "/>
  <polygon class="fil0" points="8758.16,4649.59 8865.94,4649.59 8865.94,4353.26 8758.16,4353.26 "/>
  <polygon class="fil0" points="8971.63,4649.59 9079.4,4649.59 9079.4,4353.26 8971.63,4353.26 "/>
  <polygon class="fil0" points="8544.73,5111.55 8652.51,5111.55 8652.51,4815.18 8544.73,4815.18 "/>
  <polygon class="fil0" points="8758.16,5111.55 8865.96,5111.55 8865.96,4815.18 8758.16,4815.18 "/>
  <polygon class="fil0" points="8971.63,5111.55 9079.4,5111.55 9079.4,4815.18 8971.63,4815.18 "/>
  <polygon class="fil0" points="8544.73,5573.51 8652.51,5573.51 8652.51,5277.15 8544.73,5277.15 "/>
  <polygon class="fil0" points="8758.16,5573.51 8865.94,5573.51 8865.94,5277.15 8758.16,5277.15 "/>
  <polygon class="fil0" points="8971.63,5573.51 9079.4,5573.51 9079.4,5277.15 8971.63,5277.15 "/>
  <polygon class="fil0" points="9185.06,5573.51 9292.83,5573.51 9292.83,5277.15 9185.06,5277.15 "/>
  <polygon class="fil0" points="9398.52,5573.51 9506.26,5573.51 9506.26,5277.15 9398.52,5277.15 "/>
  <polygon class="fil0" points="9611.95,5573.51 9719.73,5573.51 9719.73,5277.15 9611.95,5277.15 "/>
  <polygon class="fil0" points="8544.73,6035.44 8652.51,6035.44 8652.51,5739.07 8544.73,5739.07 "/>
  <polygon class="fil0" points="8758.16,6035.44 8865.96,6035.44 8865.96,5739.07 8758.16,5739.07 "/>
  <polygon class="fil0" points="8971.63,6035.44 9079.4,6035.44 9079.4,5739.07 8971.63,5739.07 "/>
  <polygon class="fil0" points="9185.06,6035.44 9292.83,6035.44 9292.83,5739.07 9185.06,5739.07 "/>
  <polygon class="fil0" points="9398.52,6035.44 9506.26,6035.44 9506.26,5739.07 9398.52,5739.07 "/>
  <polygon class="fil0" points="9611.95,6035.44 9719.73,6035.44 9719.73,5739.07 9611.95,5739.07 "/>
  <polygon class="fil0" points="8544.73,6497.4 8652.51,6497.4 8652.51,6201.03 8544.73,6201.03 "/>
  <polygon class="fil0" points="8758.16,6497.4 8865.94,6497.4 8865.94,6201.03 8758.16,6201.03 "/>
  <polygon class="fil0" points="8971.63,6497.4 9079.4,6497.4 9079.4,6201.03 8971.63,6201.03 "/>
  <polygon class="fil0" points="9185.06,6497.4 9292.83,6497.4 9292.83,6201.03 9185.06,6201.03 "/>
  <polygon class="fil0" points="9398.52,6497.4 9506.26,6497.4 9506.26,6201.03 9398.52,6201.03 "/>
  <polygon class="fil0" points="9611.95,6497.4 9719.73,6497.4 9719.73,6201.03 9611.95,6201.03 "/>
  <polygon class="fil0" points="8544.73,6959.33 8652.51,6959.33 8652.51,6662.96 8544.73,6662.96 "/>
  <polygon class="fil0" points="8758.16,6959.33 8865.94,6959.33 8865.94,6662.96 8758.16,6662.96 "/>
  <polygon class="fil0" points="8971.63,6959.33 9079.4,6959.33 9079.4,6662.96 8971.63,6662.96 "/>
  <polygon class="fil0" points="9185.06,6959.33 9292.83,6959.33 9292.83,6662.96 9185.06,6662.96 "/>
  <polygon class="fil0" points="9398.52,6959.33 9506.26,6959.33 9506.26,6662.96 9398.52,6662.96 "/>
  <polygon class="fil0" points="9611.95,6959.33 9719.73,6959.33 9719.73,6662.96 9611.95,6662.96 "/>
  <polygon class="fil1" points="1078.65,7801.31 30720.23,7801.31 30720.23,7088.67 1078.65,7088.67 "/>
  <polygon class="fil1" points="18716.3,7626.72 17389.43,7626.72 17906.46,4969.73 18716.3,4969.73 "/>
  <polygon class="fil1" points="338.28,8880.63 30878.62,8880.63 30878.62,7756.89 338.28,7756.89 "/>
  <polygon class="fil1" points="17628.93,2710.02 17628.93,1532.62 17202.92,1532.62 17202.92,1084.42 16974.99,1084.42 16974.99,707.9 16895.02,707.9 16895.02,62.42 16874.34,62.42 16874.34,707.9 16794.33,707.9 16794.33,1084.42 16566.4,1084.42 16566.4,1532.62 16143.63,1532.62 16143.63,2710.02 16055.76,2710.02 16055.76,4847.57 15400.26,4847.57 15400.26,7284.27 17713.57,7284.27 17713.57,2710.02 "/>
  <polygon class="fil1" points="20077.42,4062.5 18015.3,4062.5 18015.3,4099.96 18108.57,4099.96 18108.57,7586.85 19984.08,7586.85 19984.08,4099.96 20077.42,4099.96 "/>
  <polygon class="fil1" points="8845.83,7835.63 10674.14,7835.63 10674.14,4931 8845.83,4931 "/>
  <polygon class="fil1" points="5426.03,7835.63 8570.4,7835.63 8570.4,6419.16 5426.03,6419.16 "/>
  <polygon class="fil1" points="7111.43,6732.95 7801.7,6732.95 7801.7,3254.56 7111.43,3254.56 "/>
  <polygon class="fil1" points="7263.83,4218.28 7299.7,4218.28 7299.7,2326.69 7263.83,2326.69 "/>
  <polygon class="fil1" points="7380.39,4361.72 7416.23,4361.72 7416.23,2470.13 7380.39,2470.13 "/>
  <polygon class="fil1" points="7164.66,3505.57 7586.55,3505.57 7586.55,3039.4 7164.66,3039.4 "/>
  <polygon class="fil1" points="8447.19,7835.63 9648.5,7835.63 9648.5,5450.96 8447.19,5450.96 "/>
  <polygon class="fil1" points="10970.5,7835.63 13225.49,7835.63 13225.49,2927.4 10970.5,2927.4 "/>
  <polygon class="fil1" points="11192.01,3576.19 13003.94,3576.19 13003.94,2758.7 11192.01,2758.7 "/>
  <polygon class="fil1" points="10795.7,3087.49 13400.29,3087.49 13400.29,3030.09 10795.7,3030.09 "/>
  <polygon class="fil1" points="10561.91,7835.63 11624.44,7835.63 11624.44,5356.84 10561.91,5356.84 "/>
  <polygon class="fil1" points="2951.72,7835.63 4170.95,7835.63 4170.95,5262.68 2951.72,5262.68 "/>
  <polygon class="fil1" points="3346.2,7835.63 5775.68,7835.63 5775.68,4563.44 3346.2,4563.44 "/>
  <polygon class="fil1" points="3204.45,4563.44 5838.43,4563.44 5838.43,4437.93 3204.45,4437.93 "/>
  <polygon class="fil1" points="3453.76,4760.68 4521.43,4760.68 4521.43,4097.25 3453.76,4097.25 "/>
  <polygon class="fil1" points="4870.2,4500.68 5049.52,4500.68 5049.52,4097.25 4870.2,4097.25 "/>
  <polygon class="fil1" points="5228.8,4500.68 5426.03,4500.68 5426.03,4097.25 5228.8,4097.25 "/>
  <polygon class="fil1" points="2288.32,7835.63 3561.37,7835.63 3561.37,6840.52 2288.32,6840.52 "/>
  <polygon class="fil1" points="1807.49,7835.63 2410.27,7835.63 2410.27,6419.16 1807.49,6419.16 "/>
  <polygon class="fil1" points="1078.63,7835.63 2108.9,7835.63 2108.9,7338.08 1078.63,7338.08 "/>
  <polygon class="fil1" points="13003.95,7835.63 25698.58,7835.63 25698.58,6732.95 13003.95,6732.95 "/>
  <path class="fil1" d="M24140.22 4521.14l-479.07 -221.15c68.12,-149.55 108.69,-314.15 115.36,-487.33l526.45 17.11c-8.78,242.22 -64.49,476.18 -162.74,691.37zm-371.72 534c-12.03,12.03 -24.23,23.85 -36.55,35.53l-360.46 -384.74c116.77,-110.92 213.04,-243.24 282.47,-390.6l479.14 221.19c-89.08,190.29 -211.63,365.62 -364.6,518.62zm-381.88 293.3l-251.74 -464.04c80.71,-47.59 155.86,-103.65 224.19,-166.9l360.57 384.77c-102.59,95.36 -214.24,177.7 -333.02,246.17zm905.58 1740.22l-3633.89 0 910.83 -1678.8c59.66,32.91 121.01,62.44 183.8,88.58l-64.2 156.42c-14.61,-4.62 -30.13,-7.12 -46.22,-7.12 -84.28,0 -152.54,68.33 -152.54,152.54 0,84.28 68.26,152.58 152.54,152.58 84.25,0 152.54,-68.3 152.54,-152.58 0,-62.16 -37.21,-115.57 -90.52,-139.35l64.1 -156.07c200.59,81.28 415.43,127.53 637.08,135.54l-5.22 159.99c-82.62,1.9 -149.01,69.39 -149.01,152.47 0,84.24 68.3,152.57 152.54,152.57 84.28,0 152.57,-68.33 152.57,-152.57 0,-79.73 -61.17,-145.14 -139.13,-151.95l5.19 -159.98c17.49,0.46 35.03,0.74 52.59,0.74 213.4,0 421.33,-35.35 617.19,-103.22l54.82 155.54c-51.93,24.37 -87.88,77.04 -87.88,138.22 0,84.2 68.3,152.54 152.54,152.54 84.28,0 152.55,-68.34 152.55,-152.54 0,-84.28 -68.27,-152.62 -152.55,-152.62 -17.1,0 -33.54,2.86 -48.93,8.12l-54.53 -154.84c94.05,-33.58 185.27,-74.68 272.94,-123.01l910.8 1678.8zm-3110.19 -2033.52c-12.07,-12.03 -23.89,-24.23 -35.53,-36.55l384.71 -360.46c83.57,87.98 179.31,164.25 284.44,226.27l-251.78 464.04c-137.9,-79.51 -266.27,-177.69 -381.84,-293.3zm-421.01 -653.06l495.09 -182.28c59.94,159.03 150.14,303.35 263.6,425.91l-384.81 360.57c-165.1,-177.55 -291.22,-382.44 -373.88,-604.2zm-114.69 -640.19c0,-17 0.25,-34 0.71,-50.94l526.31 17.08c-0.28,11.25 -0.43,22.54 -0.43,33.86 0,155.09 27.31,303.96 77.3,442l-495.02 182.28c-71.54,-197.49 -108.87,-408.02 -108.87,-624.28zm164.01 -759.24l479.04 221.12c-68.09,149.54 -108.69,314.18 -115.36,487.32l-526.45 -17.11c8.78,-242.18 64.49,-476.14 162.77,-691.33zm371.69 -534c12.03,-12.03 24.23,-23.85 36.51,-35.53l360.5 384.71c-116.77,110.91 -213,243.24 -282.5,390.59l-479.11 -221.19c89.08,-190.29 211.6,-365.62 364.6,-518.58zm676.98 -429.76l175.33 497.52c-165.77,59.84 -315.99,152.4 -442.88,269.88l-360.57 -384.78c183.9,-171.06 397.19,-300.17 628.12,-382.62zm616.26 -105.94c17.04,0 34.01,0.25 50.95,0.71l-17.11 526.31c-11.22,-0.28 -22.51,-0.43 -33.84,-0.43 -148.69,0 -291.67,25.12 -424.92,71.27l-175.33 -497.53c190.47,-65.97 392.75,-100.33 600.25,-100.33zm687.32 133l-200.45 488.07c-135.64,-54.82 -282.5,-87.49 -436.07,-93.42l17.08 -526.41c215.51,7.79 424.39,52.77 619.44,131.76zm605.93 402.7c12.03,12.03 23.85,24.2 35.53,36.51l-384.74 360.5c-123.55,-130.1 -273.65,-234.74 -441.5,-305.22l200.44 -488.07c218.02,90.74 418.29,224.26 590.27,396.28zm421.01 653.06l-495.09 182.28c-59.94,-159.07 -150.14,-303.39 -263.56,-425.95l384.81 -360.53c165.06,177.55 291.15,382.44 373.84,604.2zm-1273.35 1865.63c65.72,-23.71 128.97,-52.57 189.3,-86.08l251.63 463.87c-85.26,47.06 -174.02,87.06 -265.57,119.77l-175.36 -497.56zm-474.77 76.45c11.29,0.28 22.54,0.45 33.86,0.45 148.74,0 291.68,-25.11 424.93,-71.26l175.36 497.53c-190.5,65.96 -392.75,100.33 -600.29,100.33 -17,0 -34,-0.29 -50.94,-0.75l17.08 -526.3zm-452.97 -94.06c135.57,54.86 282.43,87.49 436.07,93.42l-17.15 526.42c-215.44,-7.8 -424.39,-52.78 -619.37,-131.77l200.45 -488.07zm-15.73 -6.42l-200.42 488.07c-61.1,-25.43 -120.79,-54.18 -178.89,-86.25l251.67 -463.87c41.24,22.9 83.82,43.67 127.64,62.05zm598.94 -1166.24c2.72,-7.45 4.59,-15.28 5.51,-23.39l1173.97 38.17c-6.56,169.65 -46.32,330.94 -113.06,477.48l-1066.42 -492.26zm7.91 63.71l-21.1 -38.91c2.15,-3.04 4.2,-6.18 6.07,-9.46l1066.37 492.3c-68.08,144.36 -162.34,274.01 -276.75,382.7l-774.59 -826.63zm31.92 58.88l730.25 779.28c-66.81,61.81 -140.19,116.56 -218.93,163.09l-511.32 -942.37zm-94.23 -64.21c5.61,-2.5 10.94,-5.5 15.99,-8.96l560.14 1032.44c-59.2,32.84 -121.22,61.17 -185.67,84.45l-390.46 -1107.93zm-41.98 1183.36c-11.04,0 -22.04,-0.14 -33.02,-0.42l38.17 -1174.08c7.17,-0.32 14.12,-1.45 20.85,-3.18l390.46 1107.86c-130.56,45.23 -270.69,69.82 -416.46,69.82zm-31 -1179.13c6.17,1.94 12.59,3.32 19.19,4.1l-38.14 1173.97c-150.49,-5.82 -294.36,-37.78 -427.25,-91.51l446.2 -1086.56zm-26.96 -13.19c3.6,2.47 7.38,4.73 11.29,6.7l-446.19 1086.63c-43.01,-18.06 -84.77,-38.45 -125.2,-60.89l560.1 -1032.44zm-57.82 35.49l-531.7 980.05c-102.73,-60.68 -196.32,-135.29 -278.03,-221.3l809.73 -758.75zm22.79 -76.8c2.75,5.89 6.03,11.47 9.84,16.69l-6.98 12.87 -846.91 793.61c-111.16,-120.12 -199.5,-261.51 -258.24,-417.33l1102.29 -405.84zm-3.38 -78.46c-2.72,7.41 -4.56,15.24 -5.47,23.36l-1174.01 -38.14c6.56,-169.69 46.32,-330.98 113.03,-477.52l1066.45 492.3zm20.28 -33.62c-5.04,5.58 -9.45,11.68 -13.16,18.24l-1066.38 -492.27c68.06,-144.35 162.35,-274 276.76,-382.69l802.78 856.72zm34.11 -24.8c-7.79,3.53 -15.1,7.97 -21.69,13.23l-802.78 -856.72c124.35,-115.08 271.57,-205.74 434.02,-264.41l390.45 1107.9zm36.83 -8.85c-7.16,0.39 -14.11,1.44 -20.85,3.21l-390.45 -1107.9c130.6,-45.16 270.69,-69.78 416.45,-69.78 11.05,0 22.02,0.14 33.02,0.39l-38.17 1174.08zm36.13 4.65c-6.18,-1.97 -12.56,-3.31 -19.19,-4.09l38.17 -1173.97c150.49,5.82 294.39,37.78 427.25,91.51l-446.23 1086.55zm37.82 21.74c-6.64,-6.04 -14.08,-11.15 -22.12,-15.28l446.23 -1086.59c164.46,69.07 311.5,171.63 432.61,299.05l-856.72 802.82zm11.57 12.34l856.72 -802.74c111.09,120.08 199.46,261.48 258.23,417.33l-1102.32 405.87c-3.43,-7.33 -7.69,-14.21 -12.63,-20.46zm-1356.86 30.69l1174.05 38.17c0.39,7.66 1.62,15.07 3.56,22.19l-1102.32 405.88c-48.97,-135.33 -75.71,-281.2 -75.71,-433.22 0,-11.04 0.14,-22.04 0.42,-33.02zm2552.99 66.01l-1174.05 -38.14c-0.39,-7.65 -1.62,-15.1 -3.6,-22.22l1102.36 -405.87c48.97,135.36 75.74,281.2 75.74,433.24 0,11.01 -0.14,22.05 -0.45,32.99zm552.45 -32.99c0,17.01 -0.29,33.98 -0.71,50.95l-526.31 -17.11c0.25,-11.26 0.42,-22.55 0.42,-33.84 0,-155.11 -27.3,-303.95 -77.29,-442.03l495.02 -182.24c71.51,197.45 108.87,407.99 108.87,624.27zm380.75 -81.35c-79.98,0 -145.49,61.49 -152.01,139.74l-178.65 -5.79c0.49,-17.49 0.78,-35.03 0.78,-52.6 0,-222.39 -38.39,-438.82 -111.98,-641.84l149.26 -54.96c23.43,54.08 77.3,91.93 140.02,91.93 84.28,0 152.58,-68.3 152.58,-152.54 0,-84.24 -68.3,-152.58 -152.58,-152.58 -84.24,0 -152.54,68.34 -152.54,152.58 0,15.56 2.33,30.55 6.67,44.7l-149.23 54.92c-85.05,-228.07 -214.66,-438.78 -384.52,-621.34l116.8 -109.47c27.38,26.18 64.45,42.26 105.3,42.26 84.28,0 152.55,-68.29 152.55,-152.54 0,-84.24 -68.27,-152.57 -152.55,-152.57 -84.24,0 -152.54,68.33 -152.54,152.57 0,37.29 13.41,71.44 35.6,97.93l-116.77 109.47c-12.07,-12.74 -24.24,-25.29 -36.69,-37.75 -176.85,-176.81 -382.73,-314.08 -606.88,-407.35l64.24 -156.42c14.57,4.62 30.09,7.12 46.21,7.12 84.24,0 152.54,-68.29 152.54,-152.54 0,-84.24 -68.3,-152.57 -152.54,-152.57 -84.28,0 -152.57,68.33 -152.57,152.57 0,62.16 37.18,115.61 90.52,139.35l-64.07 156.07c-200.59,-81.28 -415.5,-127.53 -637.11,-135.54l6.95 -213.78 4.86 0.1c84.25,0 152.55,-68.29 152.55,-152.54 0,-84.27 -68.3,-152.57 -152.55,-152.57 -84.27,0 -152.57,68.3 -152.57,152.57 0,76.84 56.87,140.41 130.81,150.96l-6.99 214.77c-17.49,-0.5 -35.03,-0.78 -52.6,-0.78 -213.36,0 -421.32,35.35 -617.18,103.23l-61.49 -174.52c55.46,-22.83 94.54,-77.4 94.54,-141.12 0,-84.24 -68.29,-152.54 -152.57,-152.54 -84.24,0 -152.54,68.3 -152.54,152.54 0,84.28 68.3,152.58 152.54,152.58 14.6,0 28.64,-2.08 42.01,-5.93l61.49 174.59c-237.49,84.74 -456.84,217.56 -645.93,393.49l-111.52 -118.95c24.98,-27.17 40.22,-63.4 40.22,-103.16 0,-84.27 -68.3,-152.57 -152.58,-152.57 -84.24,0 -152.54,68.3 -152.54,152.57 0,84.25 68.3,152.54 152.54,152.54 38.39,0 73.42,-14.18 100.26,-37.57l111.27 118.75c-12.7,12.03 -25.29,24.23 -37.71,36.65 -157.31,157.31 -283.28,337.61 -374.79,533.3l-141.71 -65.41c5.15,-15.31 7.97,-31.64 7.97,-48.65 0,-84.24 -68.3,-152.54 -152.58,-152.54 -84.24,0 -152.54,68.3 -152.54,152.54 0,84.28 68.3,152.58 152.54,152.58 61.28,0 114.06,-36.12 138.33,-88.19l140.83 65.01c-101.11,221.3 -158.4,461.93 -167.4,711.06l-181.82 -5.93c-2.29,-82.3 -69.64,-148.3 -152.43,-148.3 -84.28,0 -152.58,68.29 -152.58,152.54 0,84.28 68.3,152.57 152.58,152.57 79.94,0 145.52,-61.56 151.94,-139.87l181.82 5.92c-0.5,17.5 -0.74,35.04 -0.74,52.6 0,222.36 38.38,438.82 111.93,641.85l-149.26 54.96c-23.46,-54.12 -77.29,-91.97 -140.01,-91.97 -84.28,0 -152.54,68.3 -152.54,152.54 0,84.28 68.26,152.58 152.54,152.58 84.24,0 152.54,-68.3 152.54,-152.58 0,-15.52 -2.33,-30.55 -6.63,-44.66l149.19 -54.96c85.01,228.07 214.7,438.82 384.56,621.38l-116.84 109.43c-27.34,-26.14 -64.45,-42.26 -105.31,-42.26 -84.24,0 -152.57,68.33 -152.57,152.58 0,84.24 68.33,152.54 152.57,152.54 84.25,0 152.55,-68.3 152.55,-152.54 0,-37.29 -13.41,-71.44 -35.64,-97.97l116.84 -109.43c12,12.7 24.21,25.29 36.66,37.71 119.1,119.1 251.39,220.24 393.56,302.08l-919.87 1695.49 -165.1 0 0 48.47 -80.86 0 0 96.24 4202.93 0 0 -96.24 -80.86 0 0 -48.47 -165.1 0 -919.83 -1695.49c122.52,-70.55 237.73,-155.43 343.46,-253.78l149.09 159.06c-32.04,27.98 -52.29,69.04 -52.29,114.87 0,84.28 68.34,152.57 152.58,152.57 84.24,0 152.58,-68.29 152.58,-152.57 0,-84.25 -68.34,-152.54 -152.58,-152.54 -32.28,0 -62.23,10.05 -86.89,27.2l-150.14 -160.24c12.7,-12.03 25.29,-24.23 37.71,-36.65 157.3,-157.3 283.25,-337.57 374.83,-533.22l165.98 76.62c-3,11.96 -4.62,24.45 -4.62,37.36 0,84.24 68.33,152.54 152.57,152.54 84.25,0 152.54,-68.3 152.54,-152.54 0,-84.28 -68.29,-152.58 -152.54,-152.58 -65.37,0 -121.1,41.14 -142.8,98.89l-164.01 -75.71c101.07,-221.3 158.36,-461.93 167.36,-711.02l178.72 5.82c2.19,82.34 69.6,148.41 152.47,148.41 84.24,0 152.54,-68.3 152.54,-152.58 0,-84.24 -68.3,-152.54 -152.54,-152.54z"/>
  <polygon class="fil1" points="25053.14,7835.63 27013.46,7835.63 27013.46,4963.38 25053.14,4963.38 "/>
  <polygon class="fil1" points="26726.58,7819.44 28686.89,7819.44 28686.89,6080.11 26726.58,6080.11 "/>
  <polygon class="fil1" points="19124.36,7284.27 20224.07,7284.27 20224.07,5824.66 19124.36,5824.66 "/>
  <polygon class="fil1" points="26033.3,7835.63 27419.85,7835.63 27419.85,2231.86 26033.3,2231.86 "/>
  <polygon class="fil1" points="29702.89,7835.63 27874.06,7835.63 27874.06,4563.44 29260.65,4563.44 "/>
  <polygon class="fil1" points="28902.05,7835.63 30503.77,7835.63 30503.77,7088.67 28902.05,7088.67 "/>
  <polygon class="fil1" points="27061.26,2583.97 27109.09,2583.97 27109.09,1061.17 27061.26,1061.17 "/>
  <polygon class="fil1" points="27222.66,2910.75 27270.45,2910.75 27270.45,1387.95 27222.66,1387.95 "/>
  <polygon class="fil1" points="26914.86,3120.97 26962.66,3120.97 26962.66,1598.17 26914.86,1598.17 "/>
  <polygon class="fil1" points="27945.81,4814.44 28600.22,4814.44 28600.22,4298.96 27945.81,4298.96 "/>
  <polygon class="fil1" points="28017.53,4404.94 28528.51,4404.94 28528.51,4115.2 28017.53,4115.2 "/>
  <polygon class="fil1" points="28860.25,4658.13 28985.73,4658.13 28985.73,4449.96 28860.25,4449.96 "/>
  <polygon class="fil1" points="29030.15,4658.13 29209.43,4658.13 29209.43,4260.05 29030.15,4260.05 "/>
  <polygon class="fil2" points="19118.82,8853.89 20781.11,8853.89 20781.11,3495.93 19118.82,3495.93 "/>
  <polygon class="fil2" points="18994.64,3581.98 20905.25,3581.98 20905.25,3527.7 18994.64,3527.7 "/>
  <polygon class="fil2" points="19046.32,4334.42 20853.61,4334.42 20853.61,4280.3 19046.32,4280.3 "/>
  <polygon class="fil2" points="19046.32,5063.29 20853.61,5063.29 20853.61,5009.18 19046.32,5009.18 "/>
  <polygon class="fil2" points="19046.32,5792.17 20853.61,5792.17 20853.61,5738.05 19046.32,5738.05 "/>
  <polygon class="fil2" points="19046.32,6521.04 20853.61,6521.04 20853.61,6466.92 19046.32,6466.92 "/>
  <polygon class="fil2" points="19046.32,7249.91 20853.61,7249.91 20853.61,7195.8 19046.32,7195.8 "/>
  <polygon class="fil2" points="19046.32,7978.79 20853.61,7978.79 20853.61,7924.67 19046.32,7924.67 "/>
  <polygon class="fil2" points="18931.46,3527.68 20968.43,3527.68 20968.43,3379.66 18931.46,3379.66 "/>
  <polygon class="fil2" points="19268.43,4186 19441.12,4186 19441.12,3757.98 19268.43,3757.98 19268.43,4115.2 19268.43,4186 19268.43,3757.98 19354.79,3757.98 19354.79,4115.2 "/>
  <polygon class="fil2" points="19654.76,4186 19827.47,4186 19827.47,3757.97 19654.76,3757.97 "/>
  <polygon class="fil2" points="20041.05,4186 20213.76,4186 20213.76,3757.97 20041.05,3757.97 "/>
  <polygon class="fil2" points="20427.41,4186 20600.1,4186 20600.1,3757.97 20427.41,3757.97 "/>
  <polygon class="fil2" points="19268.43,4885.81 19441.12,4885.81 19441.12,4457.78 19268.43,4457.78 "/>
  <path class="fil2" d="M19827.48 4885.81l-172.72 0 0 -428.03 172.72 0 0 428.03zm-129.54 -392.61l0 357.23 86.33 0 0 -357.23 -86.33 0z"/>
  <polygon class="fil2" points="20041.05,4885.81 20213.76,4885.81 20213.76,4457.78 20041.05,4457.78 "/>
  <polygon class="fil2" points="20427.41,4885.81 20600.1,4885.81 20600.1,4457.78 20427.41,4457.78 "/>
  <polygon class="fil2" points="19268.43,5614.68 19441.12,5614.68 19441.12,5186.65 19268.43,5186.65 "/>
  <polygon class="fil2" points="19654.76,5614.68 19827.47,5614.68 19827.47,5186.65 19654.76,5186.65 "/>
  <polygon class="fil2" points="20041.05,5614.68 20213.76,5614.68 20213.76,5186.65 20041.05,5186.65 "/>
  <polygon class="fil2" points="20600.1,5614.68 20427.41,5614.68 20427.41,5186.66 20600.1,5186.66 20600.1,5246.7 20556.92,5246.7 20556.92,5603.92 20600.1,5603.92 "/>
  <polygon class="fil2" points="19268.43,6343.56 19441.12,6343.56 19441.12,5915.52 19268.43,5915.52 "/>
  <polygon class="fil2" points="19827.48,6343.56 19784.27,6343.56 19784.27,6000.2 19697.94,6000.2 19697.94,6343.56 19654.76,6343.56 19654.76,5915.53 19827.48,5915.53 "/>
  <polygon class="fil2" points="20127.45,6343.56 20041.05,6343.56 20041.05,5915.53 20213.77,5915.53 20213.77,6000.2 20127.45,6000.2 "/>
  <polygon class="fil2" points="20427.41,6343.56 20600.1,6343.56 20600.1,5915.52 20427.41,5915.52 "/>
  <path class="fil2" d="M19441.12 7072.43l-172.69 0 0 -428.02 172.69 0 0 428.02zm-172.69 -387.74l0 357.19 86.36 0 0 -357.19 -86.36 0z"/>
  <polygon class="fil2" points="19654.76,7072.43 19827.47,7072.43 19827.47,6644.41 19654.76,6644.41 "/>
  <polygon class="fil2" points="20041.05,7072.43 20213.76,7072.43 20213.76,6644.41 20041.05,6644.41 "/>
  <polygon class="fil2" points="20427.41,7072.43 20600.1,7072.43 20600.1,6644.41 20427.41,6644.41 "/>
  <polygon class="fil2" points="19268.43,7801.31 19441.12,7801.31 19441.12,7373.29 19268.43,7373.29 "/>
  <polygon class="fil2" points="19654.76,7801.31 19827.47,7801.31 19827.47,7373.29 19654.76,7373.29 "/>
  <polygon class="fil2" points="20127.45,7801.31 20041.05,7801.31 20041.05,7373.28 20213.77,7373.28 20213.77,7448.07 20127.45,7448.07 "/>
  <polygon class="fil2" points="20427.41,7801.31 20600.1,7801.31 20600.1,7373.29 20427.41,7373.29 "/>
  <polygon class="fil2" points="19268.43,8530.18 19441.16,8530.18 19441.16,8102.16 19268.43,8102.16 "/>
  <polygon class="fil2" points="19654.76,8530.18 19827.47,8530.18 19827.47,8102.16 19654.76,8102.16 "/>
  <polygon class="fil2" points="20041.05,8530.18 20213.76,8530.18 20213.76,8102.16 20041.05,8102.16 "/>
  <polygon class="fil2" points="20427.41,8530.18 20600.1,8530.18 20600.1,8102.16 20427.41,8102.16 "/>
  <polygon class="fil2" points="19223.74,3453.67 19789.11,3453.67 19789.11,3175.39 19223.74,3175.39 "/>
  <polygon class="fil2" points="19185.39,3215.02 19827.47,3215.02 19827.47,3167.46 19185.39,3167.46 "/>
  <polygon class="fil2" points="16736.37,8853.89 14522.09,8853.89 14522.09,3763.09 16736.37,3221.47 "/>
  <polygon class="fil2" points="14424.79,8853.89 14619.35,8853.89 14619.35,3673.49 14424.79,3673.49 "/>
  <polygon class="fil2" points="14978.37,8853.89 15172.92,8853.89 15172.92,3527.51 14978.37,3527.51 "/>
  <polygon class="fil2" points="15531.95,8853.89 15726.52,8853.89 15726.52,3375.92 15531.95,3375.92 "/>
  <polygon class="fil2" points="16085.5,8853.89 16280.05,8853.89 16280.05,3252.34 16085.5,3252.34 "/>
  <polygon class="fil2" points="16639.08,8853.89 16833.63,8853.89 16833.63,3120.97 16639.08,3120.97 "/>
  <polygon class="fil2" points="14928,4501.63 14669.73,4501.63 14669.73,4108.22 14734.32,4108.22 14734.32,4330.64 14863.44,4330.64 14863.44,4108.22 14928,4108.22 "/>
  <polygon class="fil2" points="15481.54,4501.63 15223.31,4501.63 15223.31,4108.22 15287.87,4108.22 15287.87,4330.64 15416.98,4330.64 15416.98,4108.22 15481.54,4108.22 "/>
  <polygon class="fil2" points="15776.89,4501.63 16035.16,4501.63 16035.16,4108.22 15776.89,4108.22 "/>
  <polygon class="fil2" points="16588.7,4501.63 16330.47,4501.63 16330.47,4108.22 16395.02,4108.22 16395.02,4330.64 16524.14,4330.64 16524.14,4108.22 16588.7,4108.22 "/>
  <polygon class="fil2" points="14669.73,5186.69 14928,5186.69 14928,4793.28 14669.73,4793.28 "/>
  <polygon class="fil2" points="15223.31,5186.69 15481.54,5186.69 15481.54,4793.28 15223.31,4793.28 "/>
  <polygon class="fil2" points="16035.15,5186.69 15776.89,5186.69 15776.89,4793.28 15841.44,4793.28 15841.44,4957 15970.56,4957 15970.56,4793.28 16035.15,4793.28 "/>
  <polygon class="fil2" points="16588.7,5186.69 16330.47,5186.69 16330.47,4793.28 16395.02,4793.28 16395.02,4957 16524.14,4957 16524.14,4793.28 16588.7,4793.28 "/>
  <polygon class="fil2" points="14928,5871.75 14669.73,5871.75 14669.73,5478.33 14734.32,5478.33 14734.32,5583.39 14863.44,5583.39 14863.44,5478.33 14928,5478.33 "/>
  <polygon class="fil2" points="15481.54,5871.75 15223.31,5871.75 15223.31,5478.33 15287.87,5478.33 15287.87,5583.39 15416.98,5583.39 15416.98,5478.33 15481.54,5478.33 "/>
  <polygon class="fil2" points="16035.15,5871.75 15776.89,5871.75 15776.89,5478.33 15841.44,5478.33 15841.44,5583.39 15970.56,5583.39 15970.56,5478.33 16035.15,5478.33 "/>
  <polygon class="fil2" points="16330.47,5871.75 16588.7,5871.75 16588.7,5478.33 16330.47,5478.33 "/>
  <polygon class="fil2" points="14928,6556.81 14863.44,6556.81 14863.44,6472.85 14734.32,6472.85 14734.32,6556.81 14669.73,6556.81 14669.73,6163.36 14734.32,6163.36 14734.32,6209.78 14863.44,6209.78 14863.44,6163.36 14928,6163.36 "/>
  <polygon class="fil2" points="15223.31,6556.81 15481.54,6556.81 15481.54,6163.35 15223.31,6163.35 "/>
  <polygon class="fil2" points="16035.15,6556.81 15970.56,6556.81 15970.56,6472.85 15841.44,6472.85 15841.44,6556.81 15776.89,6556.81 15776.89,6163.36 15841.44,6163.36 15841.44,6209.78 15970.56,6209.78 15970.56,6163.36 16035.15,6163.36 "/>
  <polygon class="fil2" points="16588.7,6556.81 16524.14,6556.81 16524.14,6472.85 16395.02,6472.85 16395.02,6556.81 16330.47,6556.81 16330.47,6163.36 16395.02,6163.36 16395.02,6209.78 16524.14,6209.78 16524.14,6163.36 16588.7,6163.36 "/>
  <polygon class="fil2" points="14928,7241.8 14863.44,7241.8 14863.44,7099.21 14734.32,7099.21 14734.32,7241.8 14669.73,7241.8 14669.73,6848.42 14928,6848.42 "/>
  <polygon class="fil2" points="15481.54,7241.8 15416.98,7241.8 15416.98,7099.21 15287.87,7099.21 15287.87,7241.8 15223.31,7241.8 15223.31,6848.42 15481.54,6848.42 "/>
  <polygon class="fil2" points="15776.89,7241.8 16035.16,7241.8 16035.16,6848.41 15776.89,6848.41 "/>
  <polygon class="fil2" points="16588.7,7241.8 16524.14,7241.8 16524.14,7099.21 16395.02,7099.21 16395.02,7241.8 16330.47,7241.8 16330.47,6848.42 16588.7,6848.42 "/>
  <polygon class="fil2" points="14669.76,7926.86 14927.99,7926.86 14927.99,7533.48 14669.76,7533.48 "/>
  <polygon class="fil2" points="15223.31,7926.86 15481.54,7926.86 15481.54,7533.48 15223.31,7533.48 "/>
  <polygon class="fil2" points="15776.89,7926.89 16035.16,7926.89 16035.16,7533.48 15776.89,7533.48 "/>
  <polygon class="fil2" points="16330.47,7926.89 16588.7,7926.89 16588.7,7533.48 16330.47,7533.48 "/>
  <polygon class="fil2" points="14669.73,8611.92 14928,8611.92 14928,8218.5 14669.73,8218.5 "/>
  <polygon class="fil2" points="15223.31,8611.92 15481.54,8611.92 15481.54,8218.5 15223.31,8218.5 "/>
  <polygon class="fil2" points="15776.89,8611.92 16035.16,8611.92 16035.16,8218.5 15776.89,8218.5 "/>
  <polygon class="fil2" points="16330.47,8611.92 16588.7,8611.92 16588.7,8218.5 16330.47,8218.5 "/>
  <polygon class="fil2" points="8205.53,4006.97 8205.53,4059.81 8152.9,4059.81 8152.9,4210.45 9079.4,4210.45 9079.4,8853.89 7559,8853.89 7559,4059.81 7503.82,4059.81 7503.82,4006.97 "/>
  <polygon class="fil2" points="10795.7,8853.89 12097.97,8853.89 12097.97,6116.12 10795.7,6116.12 "/>
  <polygon class="fil2" points="5119.58,8853.89 6178.18,8853.89 6178.18,5488.53 5119.58,5488.53 "/>
  <polygon class="fil2" points="5968.5,8853.89 7122.11,8853.89 7122.11,6189.74 5968.5,6189.74 "/>
  <polygon class="fil2" points="5500.43,5756.22 5968.5,5756.22 5968.5,5353.49 5500.43,5353.49 "/>
  <polygon class="fil2" points="6047.66,6244.36 7277.41,6244.36 7277.41,6145.87 6047.66,6145.87 "/>
  <polygon class="fil2" points="6998.22,8853.89 8291.62,8853.89 8291.62,7332.43 6998.22,7332.43 "/>
  <polygon class="fil2" points="2818.02,8853.89 3870.11,8853.89 3870.11,6094.88 2818.02,6094.88 "/>
  <polygon class="fil2" points="1905.03,8853.89 3289.12,8853.89 3289.12,7469.8 1905.03,7469.8 "/>
  <polygon class="fil2" points="380.97,8853.89 1246.71,8853.89 1246.71,7243.57 380.97,7243.57 "/>
  <polygon class="fil2" points="1078.63,8853.89 3124.87,8853.89 3124.87,8349.49 1078.63,8349.49 "/>
  <polygon class="fil2" points="3.58,8853.89 645.9,8853.89 645.9,8186.46 3.58,8186.46 "/>
  <polygon class="fil2" points="3870.11,8853.89 5500.44,8853.89 5500.44,7835.63 3870.11,7835.63 "/>
  <polygon class="fil2" points="8652.5,8853.89 11192.03,8853.89 11192.03,8415.2 8652.5,8415.2 "/>
  <polygon class="fil2" points="13155.04,8853.89 15694.54,8853.89 15694.54,8415.2 13155.04,8415.2 "/>
  <polygon class="fil2" points="11093.16,7127.39 10127.89,7127.39 9719.73,8634.57 11093.16,8634.57 "/>
  <polygon class="fil2" points="11539.28,6606.38 11566.17,6606.38 11566.17,4934.42 11539.28,4934.42 "/>
  <polygon class="fil2" points="11673.76,6486.75 11709.61,6486.75 11709.61,5500.2 11673.76,5500.2 "/>
  <polygon class="fil2" points="11481.61,6163.36 11969.96,6163.36 11969.96,5675.01 11481.61,5675.01 "/>
  <polygon class="fil2" points="11399.16,5680.83 12045.94,5680.83 12045.94,5637.08 11399.16,5637.08 "/>
  <polygon class="fil2" points="11861.12,8853.89 13439.07,8853.89 13439.07,7441.79 11861.12,7441.79 "/>
  <polygon class="fil2" points="13137.33,8611.92 14151.07,8611.92 14151.07,5887.27 13137.33,5887.27 "/>
  <polygon class="fil2" points="17096.63,8853.89 18716.3,8853.89 18716.3,6399.51 17096.63,6399.51 "/>
  <polygon class="fil2" points="16588.7,8853.89 18435.38,8853.89 18435.38,7949.51 16588.7,7949.51 "/>
  <polygon class="fil2" points="18626.63,8853.89 19827.47,8853.89 19827.47,8530.17 18626.63,8530.17 "/>
  <polygon class="fil2" points="20476.17,8853.89 22428.57,8853.89 22428.57,7949.51 20476.17,7949.51 "/>
  <polygon class="fil2" points="21254.04,8853.89 23683.51,8853.89 23683.51,5581.69 21254.04,5581.69 "/>
  <polygon class="fil2" points="21191.28,5581.7 23825.27,5581.7 23825.27,5456.19 21191.28,5456.19 "/>
  <polygon class="fil2" points="22508.27,5778.94 23575.96,5778.94 23575.96,5115.53 22508.27,5115.53 "/>
  <polygon class="fil2" points="21980.2,5518.97 22159.48,5518.97 22159.48,5115.54 21980.2,5115.54 "/>
  <polygon class="fil2" points="21603.65,5518.97 21800.88,5518.97 21800.88,5115.54 21603.65,5115.54 "/>
  <polygon class="fil2" points="25353.64,8853.89 27276.73,8853.89 27276.73,4075.02 25353.64,4075.02 "/>
  <polygon class="fil2" points="25298.99,4127.94 27331.38,4127.94 27331.38,3992.82 25298.99,3992.82 "/>
  <polygon class="fil2" points="25418.27,4461.98 27212.07,4461.98 27212.07,3819.93 25418.27,3819.93 "/>
  <polygon class="fil2" points="26364.45,4258.71 27074.78,4258.71 27074.78,3557.25 26364.45,3557.25 "/>
  <polygon class="fil2" points="26663.71,3754.98 27074.77,3754.98 27074.77,3385.69 26779.95,3385.69 "/>
  <polygon class="fil2" points="26869.24,3901.7 26909.08,3901.7 26909.08,3079.19 26869.24,3079.19 "/>
  <path class="fil2" d="M26853.37 3036.55c0,23.56 16.01,42.65 35.8,42.65 19.76,0 35.78,-19.09 35.78,-42.65 0,-23.53 -16.02,-42.62 -35.78,-42.62 -19.79,0 -35.8,19.09 -35.8,42.62z"/>
  <polygon class="fil2" points="27013.46,8853.89 27874.06,8853.89 27874.06,6881.05 27013.46,6881.05 "/>
  <polygon class="fil2" points="24561.97,8853.89 25543.46,8853.89 25543.46,5919.2 24561.97,5919.2 "/>
  <polygon class="fil2" points="25053.14,8853.89 23670.57,8853.89 23670.57,7284.27 24837.49,7801.31 "/>
  <polygon class="fil2" points="27591.48,8853.89 29702.9,8853.89 29702.9,8001.43 27591.48,8001.43 "/>
  <polygon class="fil2" points="28922.97,8853.89 30149.48,8853.89 30149.48,5450.96 28922.97,5450.96 "/>
  <polygon class="fil2" points="29862.6,8853.89 30878.62,8853.89 30878.62,8218.5 29862.6,8218.5 "/>
  <polygon class="fil2" points="28860.25,5500.21 30205.6,5500.21 30205.6,5388.67 28860.25,5388.67 "/>
  <polygon class="fil2" points="29958.24,5594.26 29985.12,5594.26 29985.12,4908.5 29958.24,4908.5 "/>
  <polygon class="fil2" points="29778.95,5545.43 29805.8,5545.43 29805.8,4995.32 29778.95,4995.32 "/>
  <polygon class="fil2" points="30603.68,6732.95 30056.84,6732.95 30056.84,8292.02 30836.79,8292.02 "/>
  <polygon class="fil3" points="5228.8,5739.07 5308.94,5739.07 5308.94,5658.95 5228.8,5658.95 "/>
  <polygon class="fil3" points="5389.8,5739.07 5469.92,5739.07 5469.92,5658.95 5389.8,5658.95 "/>
  <polygon class="fil3" points="5228.8,5927.31 5308.94,5927.31 5308.94,5847.21 5228.8,5847.21 "/>
  <polygon class="fil3" points="5389.8,5927.31 5469.92,5927.31 5469.92,5847.21 5389.8,5847.21 "/>
  <polygon class="fil3" points="5228.8,6109.31 5308.94,6109.31 5308.94,6029.21 5228.8,6029.21 "/>
  <polygon class="fil3" points="5568.77,5739.07 5648.89,5739.07 5648.89,5658.95 5568.77,5658.95 "/>
  <polygon class="fil4" points="11093.16,3554.85 11147.84,3554.85 11147.84,3252.34 11093.16,3252.34 "/>
  <polygon class="fil4" points="11281.51,3554.85 11336.19,3554.85 11336.19,3252.34 11281.51,3252.34 "/>
  <polygon class="fil4" points="11469.86,3554.85 11524.51,3554.85 11524.51,3252.34 11469.86,3252.34 "/>
  <polygon class="fil4" points="11658.21,3554.85 11712.86,3554.85 11712.86,3252.34 11658.21,3252.34 "/>
  <polygon class="fil4" points="11846.55,3554.85 11901.19,3554.85 11901.19,3252.34 11846.55,3252.34 "/>
  <polygon class="fil4" points="12034.9,3554.85 12089.54,3554.85 12089.54,3252.34 12034.9,3252.34 "/>
  <polygon class="fil4" points="12223.21,3554.85 12277.9,3554.85 12277.9,3252.34 12223.21,3252.34 "/>
  <polygon class="fil4" points="12411.56,3554.85 12466.24,3554.85 12466.24,3252.34 12411.56,3252.34 "/>
  <polygon class="fil4" points="12599.91,3554.85 12654.55,3554.85 12654.55,3252.34 12599.91,3252.34 "/>
  <polygon class="fil4" points="12788.26,3554.85 12842.9,3554.85 12842.9,3252.34 12788.26,3252.34 "/>
  <polygon class="fil4" points="13003.95,3554.85 13031.26,3554.85 13031.26,3252.34 13003.95,3252.34 "/>
  <polygon class="fil4" points="12976.61,3554.85 13003.95,3554.85 13003.95,3252.34 12976.61,3252.34 "/>
  <polygon class="fil4" points="11093.16,3975.99 11147.84,3975.99 11147.84,3673.49 11093.16,3673.49 "/>
  <polygon class="fil4" points="11281.51,3975.99 11336.19,3975.99 11336.19,3673.49 11281.51,3673.49 "/>
  <polygon class="fil4" points="11469.86,3975.99 11524.51,3975.99 11524.51,3673.49 11469.86,3673.49 "/>
  <polygon class="fil4" points="11658.21,3975.99 11712.86,3975.99 11712.86,3673.49 11658.21,3673.49 "/>
  <polygon class="fil4" points="11846.55,3975.99 11901.19,3975.99 11901.19,3673.49 11846.55,3673.49 "/>
  <polygon class="fil4" points="12034.9,3975.99 12089.54,3975.99 12089.54,3673.49 12034.9,3673.49 "/>
  <polygon class="fil4" points="12223.21,3975.99 12277.9,3975.99 12277.9,3673.49 12223.21,3673.49 "/>
  <polygon class="fil4" points="12411.56,3975.99 12466.24,3975.99 12466.24,3673.49 12411.56,3673.49 "/>
  <polygon class="fil4" points="12599.91,3975.99 12654.55,3975.99 12654.55,3673.49 12599.91,3673.49 "/>
  <polygon class="fil4" points="12788.26,3975.99 12842.9,3975.99 12842.9,3673.49 12788.26,3673.49 "/>
  <polygon class="fil4" points="12976.61,3975.99 13031.26,3975.99 13031.26,3673.49 12976.61,3673.49 "/>
  <polygon class="fil4" points="11093.16,4397.14 11147.84,4397.14 11147.84,4094.63 11093.16,4094.63 "/>
  <polygon class="fil4" points="11281.51,4397.14 11336.19,4397.14 11336.19,4094.63 11281.51,4094.63 "/>
  <polygon class="fil4" points="11469.86,4397.14 11524.51,4397.14 11524.51,4094.63 11469.86,4094.63 "/>
  <polygon class="fil4" points="11658.21,4397.14 11712.86,4397.14 11712.86,4094.63 11658.21,4094.63 "/>
  <polygon class="fil4" points="11846.55,4397.14 11901.19,4397.14 11901.19,4094.63 11846.55,4094.63 "/>
  <polygon class="fil4" points="12034.9,4397.14 12089.54,4397.14 12089.54,4094.63 12034.9,4094.63 "/>
  <polygon class="fil4" points="12223.21,4397.14 12277.9,4397.14 12277.9,4094.63 12223.21,4094.63 "/>
  <polygon class="fil4" points="12411.56,4397.14 12466.24,4397.14 12466.24,4094.63 12411.56,4094.63 "/>
  <polygon class="fil4" points="12599.91,4397.14 12654.55,4397.14 12654.55,4094.63 12599.91,4094.63 "/>
  <polygon class="fil4" points="12788.26,4397.14 12842.9,4397.14 12842.9,4094.63 12788.26,4094.63 "/>
  <polygon class="fil4" points="12976.61,4397.14 13031.26,4397.14 13031.26,4094.63 12976.61,4094.63 "/>
  <polygon class="fil4" points="11658.21,4818.29 11712.86,4818.29 11712.86,4515.78 11658.21,4515.78 "/>
  <polygon class="fil4" points="11846.55,4818.29 11901.19,4818.29 11901.19,4515.78 11846.55,4515.78 "/>
  <polygon class="fil4" points="12034.9,4818.29 12089.54,4818.29 12089.54,4515.78 12034.9,4515.78 "/>
  <polygon class="fil4" points="12223.21,4818.29 12277.9,4818.29 12277.9,4515.78 12223.21,4515.78 "/>
  <polygon class="fil4" points="12411.56,4818.29 12466.24,4818.29 12466.24,4515.78 12411.56,4515.78 "/>
  <polygon class="fil4" points="12599.91,4818.29 12654.55,4818.29 12654.55,4515.78 12599.91,4515.78 "/>
  <polygon class="fil4" points="12788.26,4818.29 12842.9,4818.29 12842.9,4515.78 12788.26,4515.78 "/>
  <polygon class="fil4" points="12976.61,4818.29 13031.26,4818.29 13031.26,4515.78 12976.61,4515.78 "/>
  <polygon class="fil4" points="11846.55,5262.79 11901.19,5262.79 11901.19,4960.28 11846.55,4960.28 "/>
  <polygon class="fil4" points="12034.9,5262.79 12089.54,5262.79 12089.54,4960.28 12034.9,4960.28 "/>
  <polygon class="fil4" points="12223.21,5262.79 12277.9,5262.79 12277.9,4960.28 12223.21,4960.28 "/>
  <polygon class="fil4" points="12411.56,5262.79 12466.24,5262.79 12466.24,4960.28 12411.56,4960.28 "/>
  <polygon class="fil4" points="12599.91,5262.79 12654.55,5262.79 12654.55,4960.28 12599.91,4960.28 "/>
  <polygon class="fil4" points="12788.26,5262.79 12842.9,5262.79 12842.9,4960.28 12788.26,4960.28 "/>
  <polygon class="fil4" points="12976.61,5262.79 13031.26,5262.79 13031.26,4960.28 12976.61,4960.28 "/>
  <polygon class="fil3" points="14734.32,4108.22 14863.43,4108.22 14863.43,4003.15 14734.32,4003.15 "/>
  <polygon class="fil3" points="14734.32,4330.64 14863.43,4330.64 14863.43,4108.21 14734.32,4108.21 "/>
  <polygon class="fil3" points="14734.32,4793.28 14863.43,4793.28 14863.43,4629.55 14734.32,4629.55 "/>
  <polygon class="fil3" points="14734.32,4957 14863.43,4957 14863.43,4793.27 14734.32,4793.27 "/>
  <polygon class="fil3" points="14734.32,5478.33 14863.43,5478.33 14863.43,5255.95 14734.32,5255.95 "/>
  <polygon class="fil3" points="14734.32,5583.39 14863.43,5583.39 14863.43,5478.33 14734.32,5478.33 "/>
  <polygon class="fil3" points="14734.32,6163.36 14863.43,6163.36 14863.43,5882.27 14734.32,5882.27 "/>
  <polygon class="fil3" points="14734.32,6209.78 14863.43,6209.78 14863.43,6163.36 14734.32,6163.36 "/>
  <polygon class="fil3" points="14734.32,6800.3 14863.43,6800.3 14863.43,6556.81 14734.32,6556.81 "/>
  <polygon class="fil3" points="14734.32,6556.81 14863.43,6556.81 14863.43,6472.85 14734.32,6472.85 "/>
  <polygon class="fil3" points="14734.32,7426.69 14863.43,7426.69 14863.43,7241.81 14734.32,7241.81 "/>
  <polygon class="fil3" points="14734.32,7241.8 14863.43,7241.8 14863.43,7099.2 14734.32,7099.2 "/>
  <polygon class="fil3" points="15287.87,4108.22 15416.99,4108.22 15416.99,4003.15 15287.87,4003.15 "/>
  <polygon class="fil3" points="15287.87,4330.64 15416.99,4330.64 15416.99,4108.21 15287.87,4108.21 "/>
  <polygon class="fil3" points="15287.87,4793.28 15416.99,4793.28 15416.99,4629.55 15287.87,4629.55 "/>
  <polygon class="fil3" points="15287.87,4957 15416.99,4957 15416.99,4793.27 15287.87,4793.27 "/>
  <polygon class="fil3" points="15287.87,5478.33 15416.99,5478.33 15416.99,5255.95 15287.87,5255.95 "/>
  <polygon class="fil3" points="15287.87,5583.39 15416.99,5583.39 15416.99,5478.33 15287.87,5478.33 "/>
  <polygon class="fil3" points="15287.87,6163.36 15416.99,6163.36 15416.99,5882.27 15287.87,5882.27 "/>
  <polygon class="fil3" points="15287.87,6209.78 15416.99,6209.78 15416.99,6163.36 15287.87,6163.36 "/>
  <polygon class="fil3" points="15287.87,6800.3 15416.99,6800.3 15416.99,6556.81 15287.87,6556.81 "/>
  <polygon class="fil3" points="15287.87,6556.81 15416.99,6556.81 15416.99,6472.85 15287.87,6472.85 "/>
  <polygon class="fil3" points="15287.87,7426.69 15416.99,7426.69 15416.99,7241.81 15287.87,7241.81 "/>
  <polygon class="fil3" points="15287.87,7241.8 15416.99,7241.8 15416.99,7099.2 15287.87,7099.2 "/>
  <polygon class="fil3" points="15841.44,4108.22 15970.57,4108.22 15970.57,4003.15 15841.44,4003.15 "/>
  <polygon class="fil3" points="15841.44,4330.64 15970.57,4330.64 15970.57,4108.21 15841.44,4108.21 "/>
  <polygon class="fil3" points="15841.44,4793.28 15970.57,4793.28 15970.57,4629.55 15841.44,4629.55 "/>
  <polygon class="fil3" points="15841.44,4957 15970.57,4957 15970.57,4793.27 15841.44,4793.27 "/>
  <polygon class="fil3" points="15841.44,5478.33 15970.57,5478.33 15970.57,5255.95 15841.44,5255.95 "/>
  <polygon class="fil3" points="15841.44,5583.39 15970.57,5583.39 15970.57,5478.33 15841.44,5478.33 "/>
  <polygon class="fil3" points="15841.44,6163.36 15970.57,6163.36 15970.57,5882.27 15841.44,5882.27 "/>
  <polygon class="fil3" points="15841.44,6209.78 15970.57,6209.78 15970.57,6163.36 15841.44,6163.36 "/>
  <polygon class="fil3" points="15841.44,6800.3 15970.57,6800.3 15970.57,6556.81 15841.44,6556.81 "/>
  <polygon class="fil3" points="15841.44,6556.81 15970.57,6556.81 15970.57,6472.85 15841.44,6472.85 "/>
  <polygon class="fil3" points="15841.44,7426.69 15970.57,7426.69 15970.57,7241.81 15841.44,7241.81 "/>
  <polygon class="fil3" points="15841.44,7241.8 15970.57,7241.8 15970.57,7099.2 15841.44,7099.2 "/>
  <polygon class="fil3" points="16395.02,4108.22 16524.13,4108.22 16524.13,4003.15 16395.02,4003.15 "/>
  <polygon class="fil3" points="16395.02,4330.64 16524.13,4330.64 16524.13,4108.21 16395.02,4108.21 "/>
  <polygon class="fil3" points="16395.02,4793.28 16524.13,4793.28 16524.13,4629.55 16395.02,4629.55 "/>
  <polygon class="fil3" points="16395.02,4957 16524.13,4957 16524.13,4793.27 16395.02,4793.27 "/>
  <polygon class="fil3" points="16395.02,5478.33 16524.13,5478.33 16524.13,5255.95 16395.02,5255.95 "/>
  <polygon class="fil3" points="16395.02,5583.39 16524.13,5583.39 16524.13,5478.33 16395.02,5478.33 "/>
  <polygon class="fil3" points="16395.02,6163.36 16524.13,6163.36 16524.13,5882.27 16395.02,5882.27 "/>
  <polygon class="fil3" points="16395.02,6209.78 16524.13,6209.78 16524.13,6163.36 16395.02,6163.36 "/>
  <polygon class="fil3" points="16395.02,6800.3 16524.13,6800.3 16524.13,6556.81 16395.02,6556.81 "/>
  <polygon class="fil3" points="16395.02,6556.81 16524.13,6556.81 16524.13,6472.85 16395.02,6472.85 "/>
  <polygon class="fil3" points="16395.02,7426.69 16524.13,7426.69 16524.13,7241.81 16395.02,7241.81 "/>
  <polygon class="fil3" points="16395.02,7241.8 16524.13,7241.8 16524.13,7099.2 16395.02,7099.2 "/>
  <polygon class="fil5" points="18249.79,4760.68 18355.62,4760.68 18355.62,4353.26 18249.79,4353.26 "/>
  <polygon class="fil5" points="18573.71,4760.68 18679.54,4760.68 18679.54,4353.26 18573.71,4353.26 "/>
  <polygon class="fil5" points="18878.51,4760.68 18984.38,4760.68 18984.38,4353.26 18878.51,4353.26 "/>
  <polygon class="fil3" points="25543.47,4667.05 25623.79,4667.05 25623.79,4461.99 25543.47,4461.99 "/>
  <polygon class="fil3" points="25543.47,4461.98 25623.79,4461.98 25623.79,4437.92 25543.47,4437.92 "/>
  <polygon class="fil3" points="25795.35,4667.05 25875.68,4667.05 25875.68,4461.99 25795.35,4461.99 "/>
  <polygon class="fil3" points="25795.35,4461.98 25875.68,4461.98 25875.68,4437.92 25795.35,4437.92 "/>
  <polygon class="fil3" points="26033.3,4667.05 26113.65,4667.05 26113.65,4461.99 26033.3,4461.99 "/>
  <polygon class="fil3" points="26033.3,4461.98 26113.65,4461.98 26113.65,4437.92 26033.3,4437.92 "/>
  <polygon class="fil3" points="26285.15,4667.05 26365.56,4667.05 26365.56,4461.99 26285.15,4461.99 "/>
  <polygon class="fil3" points="26285.15,4461.98 26365.56,4461.98 26365.56,4437.92 26285.15,4437.92 "/>
  <polygon class="fil3" points="25543.47,5077.93 25623.79,5077.93 25623.79,4848.81 25543.47,4848.81 "/>
  <polygon class="fil3" points="25795.35,5077.93 25875.68,5077.93 25875.68,4848.81 25795.35,4848.81 "/>
  <polygon class="fil3" points="26033.3,5077.93 26113.65,5077.93 26113.65,4848.81 26033.3,4848.81 "/>
  <polygon class="fil3" points="26285.15,5077.93 26365.56,5077.93 26365.56,4848.81 26285.15,4848.81 "/>
  <polygon class="fil3" points="25543.47,5515.23 25623.79,5515.23 25623.79,5286.14 25543.47,5286.14 "/>
  <polygon class="fil3" points="25795.35,5515.23 25875.68,5515.23 25875.68,5286.14 25795.35,5286.14 "/>
  <polygon class="fil3" points="26033.3,5515.23 26113.65,5515.23 26113.65,5286.14 26033.3,5286.14 "/>
  <polygon class="fil3" points="26285.15,5515.23 26365.56,5515.23 26365.56,5286.14 26285.15,5286.14 "/>
  <polygon class="fil3" points="26560.46,4667.05 26640.81,4667.05 26640.81,4461.99 26560.46,4461.99 "/>
  <polygon class="fil3" points="26560.46,4461.98 26640.81,4461.98 26640.81,4437.92 26560.46,4437.92 "/>
  <polygon class="fil3" points="26560.46,5077.93 26640.81,5077.93 26640.81,4848.81 26560.46,4848.81 "/>
  <polygon class="fil3" points="26812.34,4667.05 26892.71,4667.05 26892.71,4461.99 26812.34,4461.99 "/>
  <polygon class="fil3" points="26812.34,4461.98 26892.71,4461.98 26892.71,4437.92 26812.34,4437.92 "/>
  <polygon class="fil3" points="19268.43,4115.2 19354.8,4115.2 19354.8,3757.97 19268.43,3757.97 "/>
  <polygon class="fil3" points="19697.94,4115.2 19784.26,4115.2 19784.26,3757.97 19697.94,3757.97 "/>
  <polygon class="fil3" points="20127.45,4115.2 20213.77,4115.2 20213.77,3757.97 20127.45,3757.97 "/>
  <polygon class="fil3" points="20600.1,4115.2 20643.27,4115.2 20643.27,3757.97 20600.1,3757.97 "/>
  <polygon class="fil3" points="20556.92,4115.2 20600.11,4115.2 20600.11,3757.97 20556.92,3757.97 "/>
  <polygon class="fil3" points="19268.43,4850.43 19354.8,4850.43 19354.8,4493.2 19268.43,4493.2 "/>
  <polygon class="fil3" points="19697.94,4850.43 19784.26,4850.43 19784.26,4493.2 19697.94,4493.2 "/>
  <polygon class="fil3" points="20127.45,4850.43 20213.77,4850.43 20213.77,4493.2 20127.45,4493.2 "/>
  <polygon class="fil3" points="20600.1,4850.43 20643.27,4850.43 20643.27,4493.2 20600.1,4493.2 "/>
  <polygon class="fil3" points="20556.92,4850.43 20600.11,4850.43 20600.11,4493.2 20556.92,4493.2 "/>
  <polygon class="fil3" points="19268.43,5603.92 19354.8,5603.92 19354.8,5246.69 19268.43,5246.69 "/>
  <polygon class="fil3" points="19697.94,5603.92 19784.26,5603.92 19784.26,5246.69 19697.94,5246.69 "/>
  <polygon class="fil3" points="20127.45,5603.92 20213.77,5603.92 20213.77,5246.69 20127.45,5246.69 "/>
  <polygon class="fil3" points="20600.1,5603.92 20643.27,5603.92 20643.27,5246.69 20600.1,5246.69 "/>
  <polygon class="fil3" points="20556.92,5603.92 20600.11,5603.92 20600.11,5246.69 20556.92,5246.69 "/>
  <polygon class="fil3" points="19268.43,6357.42 19354.8,6357.42 19354.8,6343.56 19268.43,6343.56 "/>
  <polygon class="fil3" points="19268.43,6343.56 19354.8,6343.56 19354.8,6000.19 19268.43,6000.19 "/>
  <polygon class="fil3" points="19697.94,6357.42 19784.26,6357.42 19784.26,6343.56 19697.94,6343.56 "/>
  <polygon class="fil3" points="19697.94,6343.56 19784.26,6343.56 19784.26,6000.19 19697.94,6000.19 "/>
  <polygon class="fil3" points="20213.77,6357.42 20127.45,6357.42 20127.45,6343.56 20213.77,6343.56 20213.77,6000.2 "/>
  <polygon class="fil3" points="20127.45,6343.56 20213.77,6343.56 20213.77,6000.19 20127.45,6000.19 "/>
  <polygon class="fil3" points="20643.28,6357.42 20556.92,6357.42 20556.92,6343.56 20600.1,6343.56 20600.1,6000.2 20643.28,6000.2 "/>
  <polygon class="fil3" points="20556.92,6343.56 20600.11,6343.56 20600.11,6000.19 20556.92,6000.19 "/>
  <polygon class="fil3" points="19268.43,7041.88 19354.8,7041.88 19354.8,6684.69 19268.43,6684.69 "/>
  <polygon class="fil3" points="19697.94,7041.88 19784.26,7041.88 19784.26,6684.69 19697.94,6684.69 "/>
  <polygon class="fil3" points="20127.45,7041.88 20213.77,7041.88 20213.77,6684.69 20127.45,6684.69 "/>
  <polygon class="fil3" points="19268.43,7805.29 19354.8,7805.29 19354.8,7801.31 19268.43,7801.31 "/>
  <polygon class="fil3" points="19268.43,7801.31 19354.8,7801.31 19354.8,7448.07 19268.43,7448.07 "/>
  <polygon class="fil3" points="19697.94,7805.29 19784.26,7805.29 19784.26,7801.31 19697.94,7801.31 "/>
  <polygon class="fil3" points="19697.94,7801.31 19784.26,7801.31 19784.26,7448.07 19697.94,7448.07 "/>
  <polygon class="fil3" points="20213.77,7805.29 20127.45,7805.29 20127.45,7801.31 20213.77,7801.31 20213.77,7448.07 "/>
  <polygon class="fil3" points="20127.45,7801.31 20213.77,7801.31 20213.77,7448.07 20127.45,7448.07 "/>
  <polygon class="fil3" points="20600.1,7041.88 20643.27,7041.88 20643.27,6684.69 20600.1,6684.69 "/>
  <polygon class="fil3" points="20556.92,7041.88 20600.11,7041.88 20600.11,6684.69 20556.92,6684.69 "/>
  <polygon class="fil3" points="29031.56,5851.57 29119.79,5851.57 29119.79,5646.54 29031.56,5646.54 "/>
  <polygon class="fil3" points="29031.56,6182.62 29119.79,6182.62 29119.79,5977.58 29031.56,5977.58 "/>
  <polygon class="fil3" points="29257.9,5851.57 29346.1,5851.57 29346.1,5646.54 29257.9,5646.54 "/>
 </g>
</svg>
