<svg xmlns="http://www.w3.org/2000/svg" width="86.496" height="74.058" viewBox="0 0 86.496 74.058">
  <g id="Слой_x0020_1" transform="translate(-533.785 -333.321)">
    <g id="_2871746014624" transform="translate(533.785 333.85)">
      <path id="Контур_11136" data-name="Контур 11136" d="M6470.743,2953.989v-2.225a2.238,2.238,0,0,0-.235-1.049q-.236-.449-1.349-.449h-1.84a1.168,1.168,0,0,0-.984.342,1.459,1.459,0,0,0-.257.9v3.082a2.815,2.815,0,0,0,.749,1.733,7.23,7.23,0,0,0,2.889,1.776q.085.043.749.257a13.017,13.017,0,0,1,1.562.642,13.655,13.655,0,0,1,1.862,1.092,6.446,6.446,0,0,1,1.6,1.562,5.3,5.3,0,0,1,.771,1.755,7.809,7.809,0,0,1,.3,2.011v5.178h-.043a6.545,6.545,0,0,1-.471,1.926,5.04,5.04,0,0,1-1.177,1.712,6.062,6.062,0,0,1-2.054,1.262,9.05,9.05,0,0,1-3.06.535h-4.451a6.055,6.055,0,0,1-2.761-.557,5.215,5.215,0,0,1-1.776-1.434,5.3,5.3,0,0,1-.963-1.947,8.311,8.311,0,0,1-.278-2.1v-3.125h5.821v2.226l-2.482,1.413h5.735a1.268,1.268,0,0,0,1.413-1.455v-1.541a4.983,4.983,0,0,0-.15-1.177,4.247,4.247,0,0,0-.534-1.241,4.984,4.984,0,0,0-1.049-1.177,5.759,5.759,0,0,0-1.69-.942,21.217,21.217,0,0,1-3.274-1.6,8.409,8.409,0,0,1-2.183-1.883,6.928,6.928,0,0,1-1.22-2.311,9.739,9.739,0,0,1-.385-2.846v-3.937h.042a5.323,5.323,0,0,1,.728-2.5,5.837,5.837,0,0,1,1.6-1.733,6.738,6.738,0,0,1,2.118-1.006,8.45,8.45,0,0,1,2.269-.321h4.451a6.194,6.194,0,0,1,2.782.556,5.281,5.281,0,0,1,1.8,1.412,5.078,5.078,0,0,1,.963,1.947,8.562,8.562,0,0,1,.278,2.119v3.124Zm25.722-9.159V2970a8.311,8.311,0,0,1-.278,2.1,5.3,5.3,0,0,1-.963,1.947,5.212,5.212,0,0,1-1.776,1.434,6.052,6.052,0,0,1-2.76.557h-4.622a6.188,6.188,0,0,1-2.782-.557,4.955,4.955,0,0,1-1.776-1.434,5.485,5.485,0,0,1-.941-1.947,8.311,8.311,0,0,1-.278-2.1V2944.83h5.82V2969.1l-2.183,1.5h4.965a1.632,1.632,0,0,0,1.412-.492,1.742,1.742,0,0,0,.343-1.006V2944.83Zm14.723,9.159v-2.225a2.232,2.232,0,0,0-.235-1.049q-.236-.449-1.348-.449h-1.84a1.168,1.168,0,0,0-.984.342,1.459,1.459,0,0,0-.257.9v3.082a2.817,2.817,0,0,0,.749,1.733,7.23,7.23,0,0,0,2.889,1.776q.086.043.749.257a13.053,13.053,0,0,1,1.563.642,13.652,13.652,0,0,1,1.861,1.092,6.437,6.437,0,0,1,1.6,1.562,5.3,5.3,0,0,1,.771,1.755,7.809,7.809,0,0,1,.3,2.011v5.178h-.043a6.559,6.559,0,0,1-.47,1.926,5.048,5.048,0,0,1-1.177,1.712,6.057,6.057,0,0,1-2.054,1.262,9.05,9.05,0,0,1-3.06.535h-4.451a6.055,6.055,0,0,1-2.761-.557,5.215,5.215,0,0,1-1.776-1.434,5.3,5.3,0,0,1-.963-1.947,8.311,8.311,0,0,1-.278-2.1v-3.125h5.821v2.226l-2.482,1.413h5.735a1.268,1.268,0,0,0,1.412-1.455v-1.541a5.007,5.007,0,0,0-.15-1.177,4.262,4.262,0,0,0-.535-1.241,4.984,4.984,0,0,0-1.049-1.177,5.759,5.759,0,0,0-1.69-.942,21.217,21.217,0,0,1-3.274-1.6,8.409,8.409,0,0,1-2.183-1.883,6.937,6.937,0,0,1-1.22-2.311,9.739,9.739,0,0,1-.385-2.846v-3.937h.043a5.317,5.317,0,0,1,.728-2.5,5.843,5.843,0,0,1,1.6-1.733,6.74,6.74,0,0,1,2.119-1.006,8.444,8.444,0,0,1,2.268-.321h4.451a6.193,6.193,0,0,1,2.782.556,5.276,5.276,0,0,1,1.8,1.412,5.078,5.078,0,0,1,.963,1.947,8.562,8.562,0,0,1,.278,2.119v3.124Zm25.208,22.041h-6.377v-12.5h-3.595v12.5h-6.377v-31.2h6.377v11.427l-2.7,1.926h6.291V2944.83h6.377Zm3.253-31.2h6.377v31.2h-6.377Z" transform="translate(-6459.53 -2937.47)" fill="#e31e24"/>
      <g id="Сгруппировать_4628" data-name="Сгруппировать 4628" transform="translate(0.001 42.027)">
        <path id="Контур_11137" data-name="Контур 11137" d="M6470.105,6185.32a3.5,3.5,0,0,1-.315,1.547,4,4,0,0,1-.751,1.082,3.013,3.013,0,0,1-.917.646,2.1,2.1,0,0,1-.811.21,2.343,2.343,0,0,1,.841.3,4.592,4.592,0,0,1,1.232.961,6.65,6.65,0,0,1,1.126,1.667,5.424,5.424,0,0,1,.5,2.418v1.412a4.216,4.216,0,0,1-1.1,3.2,4.136,4.136,0,0,1-2.959,1.036h-7.3v-21.9h6.82a4.627,4.627,0,0,1,1.728.286,2.836,2.836,0,0,1,1.126.781,2.954,2.954,0,0,1,.6,1.2,6.225,6.225,0,0,1,.181,1.547Zm-6.1-3.575v4.477l-1.622,1.262h2.734a1.011,1.011,0,0,0,.721-.286,1.169,1.169,0,0,0,.3-.886V6182.8a.947.947,0,0,0-.315-.841,1.073,1.073,0,0,0-.586-.21Zm0,9.013v5.228h1.683a1.426,1.426,0,0,0,.856-.271.9.9,0,0,0,.375-.781,5.3,5.3,0,0,0,.03-1.262,6.388,6.388,0,0,0-.24-1.142,2.783,2.783,0,0,0-.661-1.111,1.969,1.969,0,0,0-.691-.451,2.675,2.675,0,0,0-1.082-.21Zm9.614-12.858h9.253v4.086H6478.1v5.2h2.734v3.755H6478.1v3.755l-1.772,1.021h6.549v4.086h-9.253Zm21.661,15.683a5.569,5.569,0,0,1,1.442,1.908,10.343,10.343,0,0,1,.691,2.028,11.057,11.057,0,0,1,.24,2.283h-4.566a9.117,9.117,0,0,0-.09-2.223,7.06,7.06,0,0,0-.616-1.908,3.925,3.925,0,0,0-1.427-1.607,2.05,2.05,0,0,0-.661-.33q-.33-.091-.511-.15v6.219h-4.356v-21.9h7.48a5.3,5.3,0,0,1,1.382.2,3.594,3.594,0,0,1,1.322.676,3.644,3.644,0,0,1,.992,1.292,4.788,4.788,0,0,1,.39,2.073v7.09a5.743,5.743,0,0,1-.12,1.157,4.3,4.3,0,0,1-.391,1.112,3.583,3.583,0,0,1-.706.946,3.5,3.5,0,0,1-1.067.691q.18.15.331.255A1.9,1.9,0,0,1,6495.281,6193.582Zm-7.09-3.936h3.485a1.121,1.121,0,0,0,.992-.361,1.256,1.256,0,0,0,.24-.691v-6.068a1.1,1.1,0,0,0-.27-.736,1.221,1.221,0,0,0-.962-.315h-1.893v7.24Zm22.8-11.747v17.665a5.81,5.81,0,0,1-.2,1.473,3.724,3.724,0,0,1-.676,1.367,3.665,3.665,0,0,1-1.247,1.006,4.251,4.251,0,0,1-1.937.391h-3.244a4.349,4.349,0,0,1-1.953-.391,3.487,3.487,0,0,1-1.247-1.006,3.865,3.865,0,0,1-.661-1.367,5.832,5.832,0,0,1-.2-1.473V6177.9h4.085v17.035l-1.532,1.051h3.485a1.145,1.145,0,0,0,.991-.346,1.224,1.224,0,0,0,.24-.706V6177.9Z" transform="translate(-6459.65 -6177.899)" fill="#2b2a29"/>
        <path id="Контур_11138" data-name="Контур 11138" d="M11491.7,6197.578a2.1,2.1,0,0,1,.65-1.547,2.273,2.273,0,0,1,3.176,0,2.1,2.1,0,0,1,.65,1.547,2.13,2.13,0,0,1-.65,1.577,2.273,2.273,0,0,1-3.176,0A2.13,2.13,0,0,1,11491.7,6197.578Zm16.824-4a5.571,5.571,0,0,1,1.441,1.908,10.382,10.382,0,0,1,.691,2.028,11.057,11.057,0,0,1,.24,2.283h-4.566a9.1,9.1,0,0,0-.09-2.224,7.088,7.088,0,0,0-.615-1.907,3.934,3.934,0,0,0-1.428-1.607,2.068,2.068,0,0,0-.661-.331c-.22-.06-.391-.109-.511-.15v6.219h-4.355v-21.9h7.48a5.287,5.287,0,0,1,1.382.2,3.6,3.6,0,0,1,1.321.676,3.659,3.659,0,0,1,.992,1.292,4.793,4.793,0,0,1,.391,2.073v7.09a5.748,5.748,0,0,1-.121,1.156,4.3,4.3,0,0,1-.391,1.112,3.6,3.6,0,0,1-.705.946,3.508,3.508,0,0,1-1.066.69c.119.1.23.186.33.256a1.821,1.821,0,0,1,.24.2Zm-7.09-3.936h3.484a1.122,1.122,0,0,0,.992-.36,1.253,1.253,0,0,0,.24-.691v-6.069a1.1,1.1,0,0,0-.271-.736,1.221,1.221,0,0,0-.962-.315h-1.893v7.24Zm22.8-11.747v17.665a5.889,5.889,0,0,1-.2,1.472,3.728,3.728,0,0,1-.677,1.367,3.651,3.651,0,0,1-1.247,1.007,4.248,4.248,0,0,1-1.937.391h-3.244a4.349,4.349,0,0,1-1.953-.391,3.463,3.463,0,0,1-1.246-1.007,3.836,3.836,0,0,1-.661-1.367,5.8,5.8,0,0,1-.2-1.472V6177.9h4.085v17.034l-1.531,1.052h3.484a1.149,1.149,0,0,0,.992-.346,1.232,1.232,0,0,0,.24-.706V6177.9Z" transform="translate(-11437.745 -6177.9)" fill="#e31e24"/>
      </g>
      <path id="Контур_11139" data-name="Контур 11139" d="M6728.179,2399.862l80.079-.167-80.748-3.845Z" transform="translate(-6724.637 -2395.85)" fill="#2b2a29" stroke="#2b2a29" stroke-miterlimit="22.926" stroke-width="1" fill-rule="evenodd"/>
      <path id="Контур_11140" data-name="Контур 11140" d="M6807.49,8348.81l-80.081.167,80.75,3.846Z" transform="translate(-6724.537 -8279.822)" fill="#2b2a29" stroke="#2b2a29" stroke-miterlimit="22.926" stroke-width="1" fill-rule="evenodd"/>
    </g>
  </g>
</svg>
